<?xml version="1.0" standalone="no"?>
<!DOCTYPE svg PUBLIC "-//W3C//DTD SVG 20010904//EN"
 "http://www.w3.org/TR/2001/REC-SVG-20010904/DTD/svg10.dtd">
<svg version="1.0" xmlns="http://www.w3.org/2000/svg"
 width="318.000000pt" height="318.000000pt" viewBox="0 0 318.000000 318.000000"
 preserveAspectRatio="xMidYMid meet">
<metadata>
Created by potrace 1.11, written by Peter Selinger 2001-2013
</metadata>
<g transform="translate(0.000000,318.000000) scale(0.100000,-0.100000)"
fill="#000000" stroke="none">
<path d="M1910 3166 c0 -10 -40 -24 -136 -47 -144 -34 -168 -34 -355 -3 -27 4
-49 0 -85 -19 -27 -13 -71 -27 -97 -30 -41 -6 -64 -20 -155 -91 -59 -47 -124
-102 -144 -123 -46 -47 -86 -143 -124 -294 -25 -100 -29 -133 -29 -264 0 -175
20 -401 41 -450 8 -19 14 -50 14 -70 0 -27 68 -215 85 -233 1 -1 0 50 -3 114
-4 97 -3 116 9 112 8 -3 25 -46 40 -100 30 -114 46 -140 106 -178 61 -39 138
-53 249 -48 157 8 242 64 319 208 70 131 121 130 192 -5 51 -99 98 -149 171
-183 50 -23 72 -27 182 -29 112 -3 131 -1 179 19 68 29 108 77 132 160 21 73
24 49 9 -71 -11 -82 -7 -109 10 -82 15 25 23 104 21 199 -2 74 0 93 12 98 8 3
18 22 21 42 4 20 13 53 21 72 8 19 21 90 28 158 11 102 11 144 0 250 -17 161
-38 223 -165 477 -122 246 -148 276 -287 334 -53 22 -123 45 -156 51 -33 5
-65 17 -71 25 -14 19 -34 19 -34 1z m-266 -721 c168 -39 187 -41 246 -20 86
30 159 36 246 19 71 -14 91 -23 168 -79 115 -82 138 -118 165 -260 11 -60 23
-141 27 -179 l7 -68 -44 5 c-24 4 -120 9 -214 13 -147 6 -191 3 -324 -16 -165
-24 -242 -23 -341 5 -226 63 -406 80 -449 41 -14 -13 -43 -19 -101 -23 l-82
-6 7 24 c30 97 121 321 149 368 48 78 124 153 187 185 76 38 163 35 353 -9z
m715 -611 c57 -16 101 -52 100 -81 0 -15 -2 -14 -9 4 -13 31 -67 51 -172 64
-74 9 -106 8 -186 -6 -149 -25 -149 -37 3 -55 115 -13 255 -42 303 -62 31 -12
35 -11 49 7 14 18 15 14 11 -55 -6 -94 -25 -132 -86 -167 -44 -26 -54 -28
-162 -28 -98 1 -122 4 -164 23 -105 47 -156 110 -177 215 -10 49 -9 60 6 83
21 33 89 63 168 74 82 11 248 3 316 -16z m-1254 -14 c15 -16 30 -20 84 -20 36
1 86 5 111 10 25 5 99 6 164 3 135 -7 156 -17 156 -76 0 -99 -87 -217 -185
-251 -160 -54 -344 -16 -395 83 -39 79 -36 190 7 242 29 34 34 35 58 9z"/>
<path d="M2110 1679 c-7 -11 -9 -32 -6 -45 12 -46 112 -62 140 -22 25 35 19
47 -26 68 -57 26 -94 26 -108 -1z"/>
<path d="M1303 1734 c-3 -9 -2 -28 3 -43 9 -23 15 -26 68 -29 69 -4 88 9 84
52 l-3 31 -73 3 c-60 2 -73 0 -79 -14z"/>
<path d="M2161 653 c-25 -30 -41 -58 -41 -74 0 -15 -27 -98 -60 -185 -57 -155
-61 -160 -118 -214 -61 -56 -120 -85 -307 -151 l-80 -29 813 0 812 0 0 165 c0
107 -4 165 -10 165 -6 0 -39 24 -73 52 -34 29 -113 84 -175 121 -131 80 -222
109 -502 158 -96 17 -184 33 -196 35 -16 4 -31 -6 -63 -43z"/>
<path d="M970 610 c-14 -11 -20 -20 -14 -20 14 0 50 27 44 33 -3 3 -16 -3 -30
-13z"/>
<path d="M805 574 c-112 -18 -554 -133 -665 -174 -57 -21 -93 -29 -112 -25
l-28 7 0 -191 0 -191 673 1 672 0 -110 32 c-98 28 -124 41 -232 114 -131 89
-175 139 -220 250 l-22 52 56 51 c30 28 71 57 89 65 68 28 40 31 -101 9z"/>
</g>
</svg>
