<?xml version="1.0" standalone="no"?>
<!DOCTYPE svg PUBLIC "-//W3C//DTD SVG 20010904//EN"
 "http://www.w3.org/TR/2001/REC-SVG-20010904/DTD/svg10.dtd">
<svg version="1.0" xmlns="http://www.w3.org/2000/svg"
 width="284.000000pt" height="300.000000pt" viewBox="0 0 284.000000 300.000000"
 preserveAspectRatio="xMidYMid meet">
<metadata>
Created by potrace 1.15, written by Peter Selinger 2001-2017
</metadata>
<g transform="translate(0.000000,300.000000) scale(0.100000,-0.100000)"
fill="#FFFFFF" stroke="none">
<path d="M29 2971 l-29 -29 0 -1445 0 -1444 26 -27 27 -26 1369 0 1369 0 24
25 25 24 0 846 c0 561 -3 853 -10 866 -26 48 -35 49 -565 49 -336 0 -503 3
-517 11 -46 25 -48 45 -48 593 l0 515 -31 36 -31 35 -243 0 -242 0 -27 -25
c-14 -13 -31 -36 -36 -50 -6 -16 -10 -226 -10 -541 l0 -516 -29 -29 -29 -29
-177 0 -177 0 -29 29 -29 29 0 522 c0 443 -2 525 -15 550 -30 59 -37 60 -298
60 l-239 0 -29 -29z m2151 -1813 c79 -41 85 -56 88 -246 3 -188 -4 -216 -68
-259 -31 -22 -43 -23 -204 -23 -153 0 -174 2 -204 20 -64 39 -72 66 -72 248 0
174 5 195 53 240 36 34 68 40 222 41 127 1 145 -1 185 -21z"/>
</g>
</svg>
