<?xml version="1.0" standalone="no"?>
<!DOCTYPE svg PUBLIC "-//W3C//DTD SVG 20010904//EN"
 "http://www.w3.org/TR/2001/REC-SVG-20010904/DTD/svg10.dtd">
<svg version="1.0" xmlns="http://www.w3.org/2000/svg"
 width="225.000000pt" height="225.000000pt" viewBox="0 0 225.000000 225.000000"
 preserveAspectRatio="xMidYMid meet">
<metadata>
Created by potrace 1.15, written by Peter Selinger 2001-2017
</metadata>
<g transform="translate(0.000000,225.000000) scale(0.100000,-0.100000)"
fill="#FFFFFF" stroke="none">
<path d="M930 1975 c-319 -64 -576 -309 -661 -630 -30 -115 -31 -306 0 -430
89 -369 409 -632 791 -652 431 -23 808 262 896 675 19 92 18 295 -2 383 -75
331 -334 585 -666 653 -92 19 -266 20 -358 1z m74 -762 c55 -195 96 -323 103
-323 7 0 17 17 23 38 6 20 48 165 94 322 l82 285 82 3 82 3 -144 -423 -143
-423 -78 0 -78 0 -142 423 -142 423 85 -3 85 -3 91 -322z"/>
</g>
</svg>
