<?xml version="1.0" standalone="no"?>
<!DOCTYPE svg PUBLIC "-//W3C//DTD SVG 20010904//EN"
 "http://www.w3.org/TR/2001/REC-SVG-20010904/DTD/svg10.dtd">
<svg version="1.0" xmlns="http://www.w3.org/2000/svg"
 width="318.000000pt" height="289.000000pt" viewBox="0 0 318.000000 289.000000"
 preserveAspectRatio="xMidYMid meet">
<metadata>
Created by potrace 1.15, written by Peter Selinger 2001-2017
</metadata>
<g transform="translate(0.000000,289.000000) scale(0.100000,-0.100000)"
fill="#FFFFFF" stroke="none">
<path d="M1545 2848 c-193 -67 -442 -182 -487 -225 -52 -50 -42 -74 80 -193
134 -131 173 -179 211 -260 42 -88 54 -158 48 -270 -7 -134 -53 -255 -154
-399 -60 -86 -340 -365 -419 -419 -111 -74 -198 -195 -211 -290 -3 -23 2 -63
12 -98 30 -104 175 -224 358 -294 174 -68 456 -122 697 -136 l115 -7 62 129
c67 141 132 308 141 364 3 19 9 37 13 40 13 9 48 200 60 335 10 120 8 277 -8
411 l-5 51 108 32 c168 49 534 138 682 165 74 13 135 26 138 28 9 10 -98 147
-162 208 -86 81 -158 129 -278 186 -163 77 -382 139 -636 181 l-106 17 -76
156 c-43 85 -87 188 -100 228 -24 76 -28 79 -83 60z m35 -61 c0 -13 9 -56 19
-96 l19 -73 -23 6 c-29 7 -250 44 -290 48 l-30 3 25 14 c30 18 262 120 273
121 4 0 7 -10 7 -23z m-205 -186 c50 -11 115 -22 145 -26 30 -4 59 -10 64 -12
4 -3 -23 -23 -60 -45 -38 -22 -72 -44 -75 -49 -3 -5 -12 -7 -20 -3 -15 7 -156
154 -148 154 3 0 45 -9 94 -19z m66 -200 c52 -10 111 -22 132 -25 l38 -7 -63
-41 c-35 -22 -80 -56 -100 -76 -24 -22 -38 -31 -38 -22 -1 8 -16 54 -34 103
-18 48 -32 87 -31 87 2 0 45 -8 96 -19z m238 -114 c6 -35 11 -87 11 -116 0
-46 -2 -53 -17 -48 -10 2 -62 17 -116 33 l-97 28 22 24 c30 32 167 142 178
142 4 0 13 -28 19 -63z m196 37 c76 -14 143 -28 148 -31 5 -3 -34 -27 -87 -54
-53 -27 -116 -62 -141 -79 -24 -16 -46 -30 -49 -30 -3 0 -6 21 -6 48 0 26 -7
72 -15 102 -8 30 -15 58 -15 63 0 11 15 9 165 -19z m514 -135 c58 -21 106 -39
108 -39 2 0 3 -3 3 -7 0 -5 -36 -16 -79 -27 -66 -15 -288 -87 -342 -110 -12
-5 -8 15 18 91 18 54 33 112 33 129 0 17 3 33 6 36 8 8 131 -27 253 -73z
m-299 55 c0 -23 -48 -141 -82 -201 l-29 -53 -71 36 c-38 19 -82 40 -96 45 -25
10 -25 10 29 46 71 49 231 143 241 143 4 0 8 -7 8 -16z m-513 -175 l62 -20
-42 -37 c-23 -20 -66 -58 -94 -86 l-53 -50 0 64 c0 36 -3 88 -6 117 l-7 52 39
-10 c22 -6 67 -19 101 -30z m963 24 c0 -8 -170 -230 -278 -363 -2 -3 -16 11
-30 30 -14 19 -56 65 -94 102 -78 77 -82 67 48 118 81 33 333 120 347 120 4 0
7 -3 7 -7z m195 -88 c76 -56 185 -153 185 -164 0 -4 -64 -15 -142 -24 -126
-15 -326 -51 -413 -73 -28 -7 -25 -3 34 62 69 74 144 183 175 251 l19 43 36
-22 c20 -11 68 -44 106 -73z m-894 -108 c-31 -16 -84 -45 -119 -64 l-63 -34
15 33 c8 18 25 65 37 105 l22 71 82 -40 82 -41 -56 -30z m-201 12 c-16 -45
-41 -101 -55 -125 l-25 -43 -51 37 -50 37 38 34 c52 46 166 141 170 141 1 0
-11 -37 -27 -81z m440 -103 c47 -35 93 -73 103 -83 17 -20 16 -21 -75 -47 -52
-14 -160 -48 -241 -75 l-147 -50 84 91 c47 50 106 121 133 159 26 37 50 68 53
69 3 0 43 -29 90 -64z m-236 -18 c-58 -82 -196 -250 -200 -245 -2 2 -11 28
-18 58 -8 30 -17 61 -21 71 -5 12 15 28 92 71 96 54 175 96 181 97 2 0 -13
-24 -34 -52z m-276 -195 c40 -80 38 -86 -31 -112 -34 -13 -100 -40 -147 -60
l-86 -37 121 121 c66 67 121 122 122 123 2 1 11 -15 21 -35z m415 -94 c4 -30
6 -70 5 -91 l-3 -36 -90 58 c-49 33 -91 63 -92 67 -3 9 145 63 162 59 5 -2 14
-27 18 -57z m-99 -127 l88 -49 -59 -36 c-110 -66 -226 -120 -219 -102 12 32
36 187 36 232 l0 45 33 -21 c18 -11 73 -42 121 -69z m-228 7 c-3 -39 -14 -101
-23 -137 l-16 -66 -49 53 c-27 29 -60 75 -74 103 l-25 49 28 10 c15 6 53 21
83 34 84 36 84 36 76 -46z m-151 -192 l55 -67 -55 -25 c-46 -20 -236 -85 -249
-85 -1 0 19 43 46 95 27 52 46 100 43 105 -3 6 1 10 9 10 9 0 16 4 16 9 0 5 9
31 20 57 l21 47 20 -40 c10 -22 44 -70 74 -106z m-197 106 c-6 -16 -45 -85
-87 -156 -49 -84 -77 -123 -83 -115 -16 27 -28 115 -20 158 l7 45 95 47 c52
25 96 47 97 47 2 1 -3 -11 -9 -26z m678 -135 c-9 -159 -12 -171 -45 -163 -32
7 -179 77 -205 97 -18 14 -15 17 50 52 38 20 98 56 134 80 36 25 67 45 69 45
2 1 1 -50 -3 -111z m-956 -48 c0 -35 8 -81 19 -110 l19 -50 -37 -10 c-20 -5
-97 -28 -171 -49 -74 -22 -136 -35 -138 -31 -7 18 43 97 94 150 30 31 54 62
54 67 0 6 24 23 53 38 28 15 61 34 72 41 31 22 35 17 35 -46z m726 -99 c49
-22 110 -45 135 -52 l44 -12 -75 -35 c-78 -37 -313 -131 -318 -127 -2 2 14 38
84 193 13 29 24 57 24 62 0 15 8 13 106 -29z m-202 -3 c-6 -22 -81 -167 -120
-235 l-18 -31 -46 30 c-25 17 -71 56 -102 86 l-57 55 144 48 c79 26 152 52
162 58 31 18 45 13 37 -11z m385 -164 c-6 -27 -25 -95 -42 -151 -26 -90 -33
-103 -52 -103 -50 0 -336 92 -324 104 2 3 94 45 204 96 110 50 204 95 209 100
16 16 17 4 5 -46z m-927 -31 c-27 -38 -72 -102 -102 -143 -29 -41 -54 -77 -57
-79 -10 -12 -88 81 -115 137 -17 34 -29 64 -27 66 2 1 81 21 174 43 94 23 171
41 172 42 2 1 -19 -29 -45 -66z m167 -3 c23 -22 64 -55 92 -74 l50 -33 -202
-72 c-111 -39 -204 -69 -207 -66 -3 2 0 10 5 17 30 40 215 268 217 268 2 0 22
-18 45 -40z m349 -197 c23 -8 93 -25 155 -38 101 -21 109 -24 85 -34 -31 -12
-472 -141 -482 -141 -4 0 20 35 52 78 33 42 72 96 87 120 20 31 33 41 44 36 9
-3 35 -13 59 -21z m-254 -98 c-63 -98 -70 -106 -94 -100 -41 11 -163 61 -199
83 l-34 20 39 11 c21 6 109 30 194 54 85 24 156 43 158 41 2 -1 -27 -50 -64
-109z m526 -107 l-40 -105 -83 13 c-191 29 -287 48 -280 54 4 4 51 18 103 30
97 23 256 77 307 103 15 9 29 14 31 12 1 -1 -16 -49 -38 -107z"/>
</g>
</svg>
