<?xml version="1.0" standalone="no"?>
<!DOCTYPE svg PUBLIC "-//W3C//DTD SVG 20010904//EN"
 "http://www.w3.org/TR/2001/REC-SVG-20010904/DTD/svg10.dtd">
<svg version="1.0" xmlns="http://www.w3.org/2000/svg"
 width="1200.000000pt" height="1200.000000pt" viewBox="0 0 1200.000000 1200.000000"
 preserveAspectRatio="xMidYMid meet">
<metadata>
Created by potrace 1.15, written by Peter Selinger 2001-2017
</metadata>
<g transform="translate(0.000000,1200.000000) scale(0.100000,-0.100000)"
fill="#FFFFFF" stroke="none">
<path d="M5615 11993 c-1389 -89 -2697 -654 -3716 -1606 -198 -185 -373 -374
-565 -612 -703 -870 -1151 -1920 -1288 -3015 -31 -251 -37 -341 -43 -650 -10
-578 41 -1036 177 -1580 235 -936 700 -1808 1351 -2535 903 -1008 2128 -1686
3451 -1910 331 -56 552 -76 908 -82 388 -7 659 10 1015 63 828 122 1670 445
2380 911 896 589 1597 1370 2070 2303 369 730 574 1471 635 2300 15 204 12
690 -5 906 -159 1961 -1257 3705 -2960 4704 -77 45 -241 132 -365 194 -693
344 -1449 550 -2232 606 -131 9 -685 11 -813 3z m-1830 -4924 c495 -776 908
-1426 918 -1446 10 -19 21 -33 24 -30 2 3 0 68 -6 144 -7 91 -11 592 -11 1441
l0 1302 199 0 199 0 6 -1442 c4 -794 6 -1562 4 -1708 l-3 -265 -248 0 -249 0
-899 1395 c-494 767 -913 1427 -931 1467 -18 40 -35 73 -38 73 -3 0 -2 -35 2
-77 3 -43 7 -705 7 -1470 l1 -1393 -200 0 -200 0 0 1710 0 1710 263 0 262 -1
900 -1410z m3945 1231 l0 -180 -660 0 -660 0 0 -570 0 -570 615 0 615 0 0
-180 0 -180 -615 0 -615 0 0 -590 0 -590 705 0 705 0 0 -190 0 -190 -910 0
-910 0 0 1710 0 1710 865 0 865 0 0 -180z m2770 0 l0 -180 -495 0 -495 0 0
-1530 0 -1530 -200 0 -200 0 -2 1528 -3 1527 -492 3 -493 2 0 180 0 180 1190
0 1190 0 0 -180z m-9005 -2774 c56 -26 119 -90 142 -145 9 -20 16 -64 16 -97
2 -149 -116 -268 -263 -267 -77 0 -123 17 -180 69 -64 58 -84 105 -85 194 0
65 4 82 29 128 70 126 216 177 341 118z m3195 -1266 c36 -6 98 -20 138 -32
l72 -21 0 -95 c0 -86 -2 -93 -17 -87 -236 100 -439 108 -620 24 -217 -102
-343 -326 -343 -609 0 -202 57 -358 175 -475 116 -116 242 -160 435 -152 126
5 202 22 299 67 35 17 65 30 67 30 2 0 4 -40 4 -88 l0 -88 -70 -27 c-199 -77
-449 -86 -632 -23 -245 85 -424 311 -468 588 -16 98 -8 311 14 392 85 310 308
527 606 591 78 16 250 19 340 5z m1184 -451 c82 -27 188 -100 231 -159 83
-114 120 -235 119 -400 -1 -181 -47 -313 -148 -427 -107 -120 -240 -177 -411
-177 -258 0 -449 143 -526 394 -18 59 -23 99 -23 190 -1 127 12 193 56 289 59
132 163 229 303 281 110 40 291 45 399 9z m2029 -9 c185 -70 283 -231 294
-487 l6 -123 -398 0 -398 0 5 -68 c13 -177 139 -307 309 -320 120 -8 265 31
359 98 16 11 31 20 34 20 3 0 6 -38 6 -84 l0 -85 -72 -35 c-114 -56 -179 -68
-337 -64 -136 3 -138 3 -215 41 -139 69 -232 193 -272 362 -25 109 -16 306 19
405 49 137 149 257 262 315 114 57 282 68 398 25z m-814 6 c7 -5 11 -42 11
-98 0 -82 -2 -90 -17 -83 -137 52 -253 12 -319 -110 -60 -109 -64 -143 -64
-512 l0 -333 -95 0 -95 0 0 565 0 565 95 0 95 0 0 -107 0 -107 27 53 c36 69
120 146 181 166 46 15 158 15 181 1z"/>
<path d="M5584 3661 c-149 -38 -252 -170 -275 -354 -28 -216 54 -403 210 -475
79 -37 211 -43 292 -13 74 28 129 77 167 149 128 240 50 585 -152 673 -55 24
-185 35 -242 20z"/>
<path d="M7679 3660 c-25 -4 -63 -17 -85 -28 -82 -42 -165 -159 -180 -251 l-7
-41 303 0 303 0 -7 51 c-9 66 -38 141 -71 185 -50 65 -158 101 -256 84z"/>
</g>
</svg>
