<?xml version="1.0" standalone="no"?>
<!DOCTYPE svg PUBLIC "-//W3C//DTD SVG 20010904//EN"
 "http://www.w3.org/TR/2001/REC-SVG-20010904/DTD/svg10.dtd">
<svg version="1.0" xmlns="http://www.w3.org/2000/svg"
 width="512.000000pt" height="512.000000pt" viewBox="0 0 512.000000 512.000000"
 preserveAspectRatio="xMidYMid meet">
<metadata>
Created by potrace 1.15, written by Peter Selinger 2001-2017
</metadata>
<g transform="translate(0.000000,512.000000) scale(0.100000,-0.100000)"
fill="#FFFFFF" stroke="none">
<path d="M1536 5104 c-21 -21 -30 -58 -21 -91 4 -17 60 -82 140 -163 l134
-135 -35 -24 c-19 -13 -74 -65 -123 -116 -217 -227 -338 -499 -357 -802 l-7
-103 1293 0 1293 0 -6 98 c-11 181 -55 339 -140 506 -68 133 -143 232 -267
349 l-103 98 136 138 c130 130 137 140 137 177 0 64 -21 84 -87 84 l-57 0
-150 -149 -151 -148 -90 39 c-322 143 -703 143 -1031 0 l-92 -40 -148 149
-149 149 -52 0 c-33 0 -57 -5 -67 -16z m628 -668 c44 -33 70 -88 62 -135 -15
-92 -124 -158 -199 -120 -76 39 -109 114 -82 184 37 99 139 132 219 71z m955
7 c69 -52 90 -133 49 -193 -53 -78 -134 -101 -198 -57 -53 36 -75 72 -75 126
0 56 38 114 89 137 39 18 101 12 135 -13z"/>
<path d="M717 3520 c-88 -23 -172 -91 -218 -180 l-24 -45 0 -655 0 -655 27
-52 c35 -66 85 -116 151 -150 46 -25 63 -28 147 -28 79 0 103 4 142 24 66 32
125 93 156 159 l27 57 0 640 c0 608 -1 643 -19 690 -26 67 -103 147 -169 175
-58 26 -161 35 -220 20z"/>
<path d="M1272 2438 l3 -1093 29 -53 c51 -91 135 -149 232 -159 l53 -6 3 -446
3 -446 26 -55 c33 -68 89 -125 154 -156 42 -20 66 -24 148 -24 84 0 104 3 147
25 66 33 117 86 149 154 l26 56 3 448 3 447 309 0 309 0 3 -453 3 -452 27 -52
c36 -68 89 -120 152 -149 43 -20 67 -24 149 -24 83 0 105 3 145 24 64 33 120
90 151 156 l26 55 3 446 3 446 53 6 c100 10 186 71 238 170 l23 42 3 1093 2
1092 -1290 0 -1290 0 2 -1092z"/>
<path d="M4237 3520 c-95 -24 -188 -106 -223 -195 -18 -47 -19 -83 -19 -690
l0 -640 26 -56 c32 -68 83 -120 152 -156 46 -25 63 -28 147 -28 79 0 103 4
142 24 63 31 121 88 155 153 l28 53 0 655 0 655 -27 50 c-58 110 -158 175
-277 181 -36 2 -83 -1 -104 -6z"/>
</g>
</svg>
