<?xml version="1.0" standalone="no"?>
<!DOCTYPE svg PUBLIC "-//W3C//DTD SVG 20010904//EN"
 "http://www.w3.org/TR/2001/REC-SVG-20010904/DTD/svg10.dtd">
<svg version="1.0" xmlns="http://www.w3.org/2000/svg"
 width="1001.000000pt" height="1334.000000pt" viewBox="0 0 1001.000000 1334.000000"
 preserveAspectRatio="xMidYMid meet">

<g transform="translate(0.000000,1334.000000) scale(0.100000,-0.100000)"
fill="#FFFFFF" stroke="none">
<path d="M5846 13214 c43 -135 57 -244 51 -404 -6 -165 -25 -256 -87 -413
-104 -265 -298 -535 -605 -842 -195 -195 -359 -341 -800 -708 -422 -353 -471
-395 -671 -580 -355 -326 -588 -626 -694 -890 -216 -541 -11 -1164 626 -1902
207 -240 523 -544 821 -789 148 -122 376 -296 381 -291 2 2 -43 81 -100 177
-271 451 -461 833 -699 1406 -122 293 -131 323 -136 467 -6 140 13 238 73 383
113 272 313 531 833 1072 424 442 614 654 777 865 278 362 469 742 534 1062
90 449 2 908 -260 1357 -34 58 -63 106 -65 106 -2 0 8 -34 21 -76z"/>
<path d="M7724 10960 c-795 -110 -1507 -368 -1976 -716 -446 -331 -698 -739
-764 -1238 -35 -264 3 -499 121 -753 57 -122 117 -221 299 -493 235 -352 318
-531 332 -724 20 -261 -121 -572 -383 -844 -44 -45 -76 -82 -71 -82 4 0 50 14
103 30 582 187 975 554 1096 1025 19 74 23 116 22 230 0 273 -57 430 -348 965
-109 201 -174 348 -206 470 -31 114 -33 298 -5 380 58 170 174 329 416 570
311 312 746 653 1333 1047 256 172 254 164 31 133z"/>
<path d="M3110 6620 c-961 -33 -1659 -168 -1984 -384 -140 -93 -205 -187 -214
-307 -7 -106 15 -158 107 -249 225 -222 750 -358 1646 -427 279 -22 1346 -25
1665 -5 846 53 1483 126 2148 248 l243 44 231 171 c218 160 469 357 548 428
25 23 29 31 15 27 -57 -15 -372 -69 -525 -90 -627 -88 -1377 -147 -2239 -177
-381 -13 -1434 -7 -1661 10 -464 34 -709 84 -755 154 -14 22 -14 29 -2 59 57
135 406 300 972 459 l170 48 -75 -1 c-41 -1 -172 -4 -290 -8z"/>
<path d="M8390 6615 c-111 -18 -243 -57 -349 -102 -81 -35 -239 -125 -291
-165 l-25 -20 65 9 c404 51 774 -119 930 -428 82 -161 81 -393 -1 -643 -147
-441 -579 -971 -1147 -1403 -62 -47 -111 -88 -109 -89 7 -8 314 61 457 103
289 83 593 219 810 361 408 266 661 614 751 1030 29 138 37 431 15 559 -60
345 -229 582 -509 713 -46 22 -122 49 -168 60 -111 27 -313 35 -429 15z"/>
<path d="M2745 5133 c-64 -9 -226 -54 -301 -83 -240 -95 -458 -262 -529 -405
-41 -83 -42 -170 -3 -236 138 -235 682 -433 1448 -528 851 -106 1813 -61 2672
124 318 68 809 215 998 297 l53 23 -381 243 -381 243 -83 -26 c-271 -86 -709
-172 -1088 -215 -384 -44 -961 -62 -1290 -41 -566 36 -922 120 -1067 254 -102
93 -96 191 17 307 l49 50 -42 -1 c-23 -1 -55 -4 -72 -6z"/>
<path d="M3023 3735 c-283 -51 -545 -227 -638 -427 -71 -153 -48 -278 71 -395
202 -197 689 -335 1352 -383 185 -13 734 -13 927 0 756 52 1403 194 1880 412
102 47 255 130 255 139 0 3 -181 126 -402 274 l-402 268 -46 -18 c-459 -177
-1092 -286 -1750 -302 -657 -15 -1094 90 -1111 267 -5 54 2 80 35 129 l35 51
-67 -1 c-37 0 -99 -7 -139 -14z"/>
<path d="M1151 3059 c-132 -14 -325 -56 -455 -99 -364 -122 -617 -331 -673
-555 -41 -166 46 -379 223 -544 431 -402 1471 -695 2864 -806 392 -31 535 -36
1070 -42 666 -7 1054 7 1620 58 961 85 1770 252 2365 486 495 195 810 446 906
723 18 51 23 88 23 170 1 98 -1 110 -31 173 -35 73 -108 158 -188 217 -46 34
-226 140 -238 140 -3 0 4 -28 15 -62 27 -86 27 -212 0 -296 -65 -202 -285
-391 -627 -537 -827 -353 -2369 -527 -4035 -454 -1343 58 -2382 274 -2695 561
-163 149 -142 298 58 422 90 55 165 87 289 120 185 51 401 68 577 46 46 -6 85
-9 87 -7 3 3 -394 242 -437 263 -3 2 -72 10 -152 19 -157 16 -428 18 -566 4z"/>
<path d="M9933 1728 c-759 -695 -2116 -1169 -3758 -1312 -418 -37 -537 -41
-1125 -41 -586 0 -743 5 -1170 41 -676 55 -1469 177 -2100 323 -69 16 -126 28
-128 27 -1 -2 64 -29 145 -61 928 -364 1920 -582 3058 -671 276 -21 1045 -30
1345 -15 1731 87 3115 559 3609 1230 80 108 145 244 170 351 20 90 35 190 27
190 -2 0 -35 -28 -73 -62z"/>
</g>
</svg>
