<?xml version="1.0" standalone="no"?>
<!DOCTYPE svg PUBLIC "-//W3C//DTD SVG 20010904//EN"
 "http://www.w3.org/TR/2001/REC-SVG-20010904/DTD/svg10.dtd">
<svg version="1.0" xmlns="http://www.w3.org/2000/svg"
 width="860.000000pt" height="717.000000pt" viewBox="0 0 860.000000 717.000000"
 preserveAspectRatio="xMidYMid meet">
<metadata>
Created by potrace 1.15, written by Peter Selinger 2001-2017
</metadata>
<g transform="translate(0.000000,717.000000) scale(0.100000,-0.100000)"
fill="#FFFFFF" stroke="none">
<path d="M4190 6740 c-235 -14 -547 -64 -713 -116 -279 -88 -422 -220 -476
-438 -20 -82 -30 -287 -31 -618 l0 -318 750 0 750 0 0 -170 0 -169 -1237 -3
-1238 -3 -100 -28 c-308 -84 -519 -281 -620 -578 -59 -173 -121 -536 -131
-766 -14 -304 65 -785 174 -1063 87 -221 229 -396 389 -477 141 -71 188 -78
583 -78 l345 0 5 500 6 500 27 86 c56 183 141 326 271 455 131 131 278 217
455 267 73 20 103 21 821 27 733 6 746 6 818 28 256 78 457 242 547 447 55
124 56 140 52 1015 -3 900 1 843 -77 1005 -113 235 -329 383 -647 445 -236 46
-487 63 -723 50z m-505 -694 c162 -95 162 -336 0 -431 -126 -74 -296 -21 -356
110 -25 54 -25 156 0 210 21 48 96 117 143 133 57 19 160 9 213 -22z"/>
<path d="M5967 5253 c-4 -3 -7 -221 -7 -483 0 -476 0 -478 -25 -576 -86 -338
-362 -633 -686 -732 -125 -39 -199 -42 -885 -42 -727 0 -739 -1 -892 -60 -183
-71 -351 -214 -429 -365 -82 -159 -78 -105 -78 -1040 0 -819 1 -831 22 -906
73 -260 261 -455 523 -544 128 -44 338 -78 572 -95 321 -23 823 35 1098 126
134 45 219 93 296 166 72 69 116 146 146 255 20 73 22 105 26 521 l4 442 -751
0 -751 0 0 160 0 159 1243 4 c1236 3 1242 3 1322 24 303 82 507 257 615 525
53 135 116 432 141 668 15 143 6 489 -16 630 -78 499 -183 776 -366 959 -121
122 -242 181 -415 201 -98 11 -697 14 -707 3z m-838 -3698 c61 -21 104 -58
137 -117 84 -155 -32 -344 -211 -342 -199 1 -306 234 -177 384 67 79 161 107
251 75z"/>
</g>
</svg>
