<?xml version="1.0" standalone="no"?>
<!DOCTYPE svg PUBLIC "-//W3C//DTD SVG 20010904//EN"
 "http://www.w3.org/TR/2001/REC-SVG-20010904/DTD/svg10.dtd">
<svg version="1.0" xmlns="http://www.w3.org/2000/svg"
 width="250.000000pt" height="250.000000pt" viewBox="0 0 250.000000 250.000000"
 preserveAspectRatio="xMidYMid meet">

<g transform="translate(0.000000,250.000000) scale(0.100000,-0.100000)"
fill="#FFFFFF" stroke="none">
<path d="M790 2035 c-250 -90 -458 -165 -462 -167 -9 -4 130 -1220 140 -1230
4 -4 182 -104 396 -223 l389 -215 391 216 c215 119 392 217 393 219 9 6 143
1229 136 1235 -8 7 -916 331 -924 329 -2 0 -209 -74 -459 -164z m749 -702
c156 -351 286 -644 288 -650 4 -10 -21 -13 -104 -13 l-109 0 -58 145 -58 145
-250 -2 -250 -3 -56 -140 -57 -140 -109 -3 c-101 -2 -108 -1 -102 15 23 60
572 1283 576 1283 3 0 133 -287 289 -637z"/>
<path d="M1164 1345 l-82 -195 168 0 168 0 -82 195 c-44 107 -83 195 -86 195
-3 0 -42 -88 -86 -195z"/>
</g>
</svg>
